<svg width="25" height="22" viewBox="0 0 25 22" fill="none" xmlns="http://www.w3.org/2000/svg">
<path d="M4.65715 10.7125C4.65715 11.0183 4.59691 11.3212 4.47986 11.6038C4.36282 11.8863 4.19127 12.1431 3.975 12.3594C3.75873 12.5756 3.50198 12.7472 3.21941 12.8642C2.93684 12.9813 2.63398 13.0415 2.32813 13.0415C2.02228 13.0415 1.71943 12.9813 1.43686 12.8642C1.15429 12.7472 0.897538 12.5756 0.681268 12.3594C0.464999 12.1431 0.293445 11.8863 0.176401 11.6038C0.0593568 11.3212 -0.000885014 11.0183 -0.00088501 10.7125C-0.000885001 10.0948 0.244493 9.50241 0.681269 9.06563C1.11804 8.62886 1.71044 8.38348 2.32813 8.38348C2.94583 8.38348 3.53822 8.62886 3.975 9.06563C4.41177 9.50241 4.65715 10.0948 4.65715 10.7125V10.7125ZM4.65715 2.32857C4.65715 2.63442 4.59691 2.93727 4.47986 3.21984C4.36282 3.50241 4.19127 3.75916 3.975 3.97543C3.75873 4.1917 3.50198 4.36326 3.21941 4.4803C2.93684 4.59734 2.63398 4.65759 2.32813 4.65759C2.02228 4.65759 1.71943 4.59734 1.43686 4.4803C1.15429 4.36326 0.897538 4.1917 0.681268 3.97543C0.464999 3.75916 0.293445 3.50241 0.176401 3.21984C0.0593568 2.93727 -0.000885014 2.63442 -0.00088501 2.32857C-0.000885001 1.71087 0.244493 1.11848 0.681269 0.681703C1.11804 0.244928 1.71044 -0.000450134 2.32813 -0.000450134C2.94583 -0.000450134 3.53822 0.244928 3.975 0.681703C4.41177 1.11848 4.65715 1.71087 4.65715 2.32857V2.32857ZM4.65715 19.0973C4.65715 19.4032 4.59691 19.706 4.47986 19.9886C4.36282 20.2712 4.19127 20.5279 3.975 20.7442C3.75873 20.9605 3.50198 21.132 3.21941 21.2491C2.93684 21.3661 2.63398 21.4263 2.32813 21.4263C2.02228 21.4263 1.71943 21.3661 1.43686 21.2491C1.15429 21.132 0.897538 20.9605 0.681268 20.7442C0.464999 20.5279 0.293445 20.2712 0.176401 19.9886C0.0593568 19.706 -0.000885014 19.4032 -0.00088501 19.0973C-0.000885001 18.4796 0.244493 17.8872 0.681269 17.4505C1.11804 17.0137 1.71044 16.7683 2.32813 16.7683C2.94583 16.7683 3.53822 17.0137 3.975 17.4505C4.41177 17.8872 4.65715 18.4796 4.65715 19.0973V19.0973ZM8.74465 -3.74038e-06H22.358C22.9761 -3.74038e-06 23.5688 0.245515 24.0059 0.682542C24.4429 1.11957 24.6884 1.7123 24.6884 2.33035C24.6884 2.9484 24.4429 3.54114 24.0059 3.97816C23.5688 4.41519 22.9761 4.66071 22.358 4.66071H8.74465C8.1266 4.66071 7.53387 4.41519 7.09684 3.97816C6.65981 3.54114 6.41429 2.9484 6.41429 2.33035C6.41429 1.7123 6.65981 1.11957 7.09684 0.682542C7.53387 0.245515 8.1266 -3.74038e-06 8.74465 -3.74038e-06V-3.74038e-06ZM8.74465 8.38393H22.358C22.6641 8.38393 22.9671 8.4442 23.2498 8.56131C23.5326 8.67842 23.7895 8.85008 24.0059 9.06647C24.2222 9.28286 24.3939 9.53976 24.511 9.82249C24.6281 10.1052 24.6884 10.4083 24.6884 10.7143C24.6884 11.0203 24.6281 11.3233 24.511 11.6061C24.3939 11.8888 24.2222 12.1457 24.0059 12.3621C23.7895 12.5785 23.5326 12.7501 23.2498 12.8673C22.9671 12.9844 22.6641 13.0446 22.358 13.0446H8.74465C8.43862 13.0446 8.13559 12.9844 7.85286 12.8673C7.57013 12.7501 7.31323 12.5785 7.09684 12.3621C6.88045 12.1457 6.70879 11.8888 6.59168 11.6061C6.47457 11.3233 6.41429 11.0203 6.41429 10.7143C6.41429 10.4083 6.47457 10.1052 6.59168 9.82249C6.70879 9.53976 6.88045 9.28286 7.09684 9.06647C7.31323 8.85008 7.57013 8.67842 7.85286 8.56131C8.13559 8.4442 8.43862 8.38393 8.74465 8.38393V8.38393ZM8.74465 16.7687H22.358C22.6641 16.7687 22.9671 16.829 23.2498 16.9461C23.5326 17.0632 23.7895 17.2349 24.0059 17.4513C24.2222 17.6677 24.3939 17.9246 24.511 18.2073C24.6281 18.49 24.6884 18.7931 24.6884 19.0991C24.6884 19.4051 24.6281 19.7082 24.511 19.9909C24.3939 20.2736 24.2222 20.5305 24.0059 20.7469C23.7895 20.9633 23.5326 21.135 23.2498 21.2521C22.9671 21.3692 22.6641 21.4295 22.358 21.4295H8.74465C8.43862 21.4295 8.13559 21.3692 7.85286 21.2521C7.57013 21.135 7.31323 20.9633 7.09684 20.7469C6.88045 20.5305 6.70879 20.2736 6.59168 19.9909C6.47457 19.7082 6.41429 19.4051 6.41429 19.0991C6.41429 18.7931 6.47457 18.49 6.59168 18.2073C6.70879 17.9246 6.88045 17.6677 7.09684 17.4513C7.31323 17.2349 7.57013 17.0632 7.85286 16.9461C8.13559 16.829 8.43862 16.7687 8.74465 16.7687V16.7687Z" fill="#422575"/>
</svg>
